<svg width="483" height="179" viewBox="0 0 483 179" fill="none" xmlns="http://www.w3.org/2000/svg">
<path d="M320.094 96.9468L353.7 36.3938L367.329 60.8627L345.183 100.973L344.099 102.987H316.842L320.094 96.9468ZM431.908 96.9468L435.16 102.987H407.904L406.82 100.973L386.377 64.1149L376.311 45.9955L376.001 45.376L362.373 20.7522L363.457 18.7389L372.284 2.63275L373.369 0.4646H378.634L379.563 2.63275L388.545 18.7389L431.908 96.9468Z" fill="#CEFF00"/>
<path d="M225.344 102.987V46.7698L247.025 68.4512V102.987H225.344ZM286.516 0.619469H308.197V102.987H302.932L287.6 87.6547L261.892 61.9468L247.025 47.0796L225.344 25.3982V12.3894V2.63274V0H230.609L286.516 55.7521V0.619469Z" fill="#CEFF00"/>
<path d="M117.511 102.987V46.7698L139.193 68.4512V102.987H117.511ZM204.856 0H209.502V102.987H187.821V47.699L176.361 59.3141L171.87 63.6503L170.631 64.8893L166.759 68.9158L163.817 71.7034L149.259 57.1459L139.193 47.0796L117.511 25.3982V0H122.777L143.529 20.7522L163.817 41.0398L204.856 0Z" fill="#CEFF00"/>
<path d="M50.9512 1.08398C78.9822 1.08398 101.902 24.0043 101.902 52.0352C101.902 80.221 78.9822 102.986 50.9512 102.986C22.7655 102.986 0 80.221 0 52.0352C0 24.0043 22.7655 1.08398 50.9512 1.08398ZM80.5309 52.0352C80.5309 35.7742 67.2123 22.4556 50.9512 22.4556C34.5353 22.4556 21.2168 35.7742 21.2168 52.0352C21.2168 68.4511 34.5353 81.7697 50.9512 81.7697C67.2123 81.7697 80.5309 68.4511 80.5309 52.0352Z" fill="#CEFF00"/>
<path d="M400.109 163.43C400.844 163.43 401.523 163.375 402.148 163.266C402.789 163.156 403.352 163.016 403.836 162.844V164.812C403.336 164.984 402.75 165.133 402.078 165.258C401.406 165.398 400.664 165.469 399.852 165.469C398.414 165.469 397.219 165.203 396.266 164.672C395.312 164.125 394.594 163.305 394.109 162.211C393.625 161.102 393.383 159.695 393.383 157.992V141.492H389.586V140.086L393.359 139.359L394.18 133.359H395.75V139.523H403.695V141.492H395.75V157.852C395.75 159.68 396.086 161.07 396.758 162.023C397.445 162.961 398.562 163.43 400.109 163.43ZM418.953 139.031C421.125 139.031 422.93 139.539 424.367 140.555C425.82 141.57 426.898 142.961 427.602 144.727C428.32 146.492 428.68 148.516 428.68 150.797V152.508H410.281C410.281 156.008 411.086 158.695 412.695 160.57C414.32 162.445 416.641 163.383 419.656 163.383C421.234 163.383 422.602 163.258 423.758 163.008C424.93 162.742 426.227 162.297 427.648 161.672V163.852C426.398 164.414 425.148 164.82 423.898 165.07C422.648 165.336 421.211 165.469 419.586 165.469C417.008 165.469 414.844 164.938 413.094 163.875C411.359 162.797 410.047 161.281 409.156 159.328C408.281 157.375 407.844 155.094 407.844 152.484C407.844 149.938 408.266 147.648 409.109 145.617C409.969 143.586 411.219 141.984 412.859 140.812C414.516 139.625 416.547 139.031 418.953 139.031ZM418.93 141.07C416.492 141.07 414.516 141.883 413 143.508C411.5 145.117 410.617 147.445 410.352 150.492H426.219C426.219 148.633 425.953 146.992 425.422 145.57C424.891 144.148 424.086 143.047 423.008 142.266C421.945 141.469 420.586 141.07 418.93 141.07ZM445.906 165.469C443.375 165.469 441.234 164.945 439.484 163.898C437.75 162.836 436.438 161.328 435.547 159.375C434.672 157.406 434.234 155.078 434.234 152.391C434.234 149.594 434.742 147.203 435.758 145.219C436.773 143.219 438.203 141.688 440.047 140.625C441.891 139.562 444.055 139.031 446.539 139.031C447.758 139.031 448.891 139.141 449.938 139.359C450.984 139.578 451.93 139.883 452.773 140.273L452.141 142.359C451.266 141.969 450.336 141.672 449.352 141.469C448.367 141.266 447.422 141.164 446.516 141.164C444.422 141.164 442.641 141.625 441.172 142.547C439.719 143.453 438.602 144.75 437.82 146.438C437.055 148.109 436.672 150.086 436.672 152.367C436.672 154.508 437 156.406 437.656 158.062C438.312 159.703 439.32 161 440.68 161.953C442.039 162.891 443.781 163.359 445.906 163.359C447.141 163.359 448.312 163.234 449.422 162.984C450.547 162.734 451.57 162.414 452.492 162.023V164.18C451.664 164.555 450.703 164.859 449.609 165.094C448.531 165.344 447.297 165.469 445.906 165.469ZM460.883 128.531V140.438C460.883 141.125 460.867 141.766 460.836 142.359C460.82 142.953 460.789 143.555 460.742 144.164H460.906C461.328 143.195 461.93 142.328 462.711 141.562C463.508 140.797 464.484 140.188 465.641 139.734C466.812 139.281 468.164 139.055 469.695 139.055C471.633 139.055 473.258 139.391 474.57 140.062C475.898 140.719 476.906 141.727 477.594 143.086C478.281 144.445 478.625 146.195 478.625 148.336V165H476.281V148.477C476.281 145.945 475.703 144.086 474.547 142.898C473.391 141.711 471.711 141.117 469.508 141.117C467.633 141.117 466.055 141.484 464.773 142.219C463.492 142.938 462.523 144.031 461.867 145.5C461.211 146.953 460.883 148.773 460.883 150.961V165H458.516V128.531H460.883Z" fill="white"/>
</svg>
